<?xml version="1.0" standalone="no"?>
<!DOCTYPE svg PUBLIC "-//W3C//DTD SVG 20010904//EN"
 "http://www.w3.org/TR/2001/REC-SVG-20010904/DTD/svg10.dtd">
<svg version="1.0" xmlns="http://www.w3.org/2000/svg"
 width="400.000000pt" height="400.000000pt" viewBox="0 0 400.000000 400.000000"
 preserveAspectRatio="xMidYMid meet">
<metadata>
Created by potrace 1.14, written by Peter Selinger 2001-2017
</metadata>
<g transform="translate(0.000000,400.000000) scale(0.100000,-0.100000)"
fill="#000000" stroke="none">
<path d="M0 2000 l0 -2000 2000 0 2000 0 0 2000 0 2000 -2000 0 -2000 0 0
-2000z m2356 1425 c146 -15 272 -37 364 -62 30 -8 69 -18 85 -23 105 -27 219
-97 247 -152 18 -35 18 -38 -1 -149 -10 -63 -26 -161 -35 -219 -9 -58 -52
-341 -96 -630 -87 -564 -155 -1014 -192 -1255 -20 -131 -26 -153 -49 -180 -82
-94 -417 -185 -679 -185 -250 0 -594 93 -677 182 -18 19 -27 51 -43 149 -31
194 -98 629 -105 684 -8 61 -53 356 -105 685 -21 135 -46 295 -55 355 -9 61
-30 194 -46 297 -38 246 -38 248 11 302 85 92 331 166 685 205 135 14 539 12
691 -4z"/>
<path d="M1094 2958 c3 -18 21 -139 41 -268 19 -129 73 -482 120 -785 46 -302
101 -658 120 -790 20 -132 39 -250 42 -261 3 -15 25 -31 71 -52 208 -95 491
-126 744 -82 175 30 344 94 353 135 9 37 54 328 80 510 14 99 57 383 95 630
136 876 152 986 147 991 -2 2 -24 -4 -48 -14 -193 -82 -566 -129 -952 -119
-318 8 -552 43 -731 108 -44 16 -82 29 -84 29 -2 0 -2 -15 2 -32z"/>
</g>
</svg>
